<?xml version="1.0" encoding="utf-8"?>
<!-- Generator: Adobe Illustrator 19.0.0, SVG Export Plug-In . SVG Version: 6.00 Build 0)  -->
<svg version="1.1" id="图层_1" xmlns="http://www.w3.org/2000/svg" xmlns:xlink="http://www.w3.org/1999/xlink" x="0px" y="0px"
	 viewBox="0 0 80 80" style="enable-background:new 0 0 80 80;" xml:space="preserve">
<g id="XMLID_1_">
	<g id="XMLID_59_">
		<path id="XMLID_70_" style="fill:#E84545;" d="M40,71.2c-0.1,0-0.2,0-0.4-0.1C39.4,71,13.5,61,13.5,31.4V9.8c0-0.6,0.4-1,1-1h51
			c0.6,0,1,0.4,1,1v21.6C66.5,61,40.6,71,40.4,71.1C40.2,71.2,40.1,71.2,40,71.2z M15.5,10.8v20.6C15.5,57.8,37,67.8,40,69.1
			c3-1.3,24.5-11.4,24.5-37.7V10.8H15.5z"/>
	</g>
	<g id="XMLID_58_">
		<path id="XMLID_67_" style="fill:#E84545;" d="M33.4,41.6c-0.2,0-0.4-0.1-0.6-0.2c-0.4-0.3-0.5-0.7-0.4-1.1l2.2-7l-5.9-4.4
			c-0.3-0.3-0.5-0.7-0.4-1.1c0.1-0.4,0.5-0.7,0.9-0.7h7.2l2.2-6.9c0.1-0.4,0.5-0.7,1-0.7s0.8,0.3,1,0.7L43,27h7.2
			c0.4,0,0.8,0.3,0.9,0.7c0.1,0.4,0,0.9-0.3,1.1L45,33.2l2.2,7c0.1,0.4,0,0.9-0.4,1.1c-0.3,0.3-0.8,0.3-1.2,0l-5.9-4.2L34,41.4
			C33.8,41.5,33.6,41.6,33.4,41.6z M32.4,29l4,3c0.3,0.3,0.5,0.7,0.4,1.1l-1.5,4.8l4-2.9c0.4-0.3,0.8-0.3,1.2,0l4,2.9l-1.5-4.7
			c-0.1-0.4,0-0.9,0.4-1.1l4-3h-5c-0.4,0-0.8-0.3-1-0.7l-1.5-4.6l-1.5,4.6c-0.1,0.4-0.5,0.7-1,0.7H32.4z"/>
	</g>
</g>
</svg>
