<?xml version="1.0" encoding="utf-8"?>
<!-- Generator: Adobe Illustrator 19.0.0, SVG Export Plug-In . SVG Version: 6.00 Build 0)  -->
<svg version="1.1" id="图层_1" xmlns="http://www.w3.org/2000/svg" xmlns:xlink="http://www.w3.org/1999/xlink" x="0px" y="0px"
	 viewBox="0 0 80 80" style="enable-background:new 0 0 80 80;" xml:space="preserve">
<g id="XMLID_1_">
	<path id="XMLID_32_" style="fill:#E84545;" d="M72.1,24.4c1.1,0,1.9,0.9,1.9,1.9v9.2c-2.7,2.1-19.8,8.8-34.1,8.8l-0.2,0
		C26.1,44.2,9,37.6,6,35.4v-9.1c0-1.1,0.9-1.9,1.9-1.9H72.1 M72.1,22.4H7.9c-2.2,0-3.9,1.8-3.9,3.9v9.8C4,38,24.5,46.2,39.8,46.3
		c0.1,0,0.1,0,0.2,0c15.6,0,36.1-8,36.1-10.2v-9.8C76,24.1,74.2,22.4,72.1,22.4L72.1,22.4z"/>
	<g id="XMLID_42_">
		<path id="XMLID_48_" style="fill:#E84545;" d="M46,53H34c-0.6,0-1-0.4-1-1s0.4-1,1-1h12c0.6,0,1,0.4,1,1S46.6,53,46,53z"/>
	</g>
	<g id="XMLID_43_">
		<path id="XMLID_49_" style="fill:#E84545;" d="M72.3,70.5H8c-2.1,0-3.7-1.7-3.7-3.8V45c0-0.6,0.4-1,1-1s1,0.4,1,1v21.7
			c0,1,0.8,1.8,1.7,1.8h64.3c1,0,1.7-0.8,1.7-1.8V45c0-0.6,0.4-1,1-1s1,0.4,1,1v21.7C76,68.8,74.3,70.5,72.3,70.5z"/>
	</g>
	<g id="XMLID_44_">
		<path id="XMLID_50_" style="fill:#E84545;" d="M52.9,18.8c-0.6,0-1-0.4-1-1v-4.4c0-1.1-0.9-2-2-2h-20c-1.1,0-2,0.9-2,2v4.4
			c0,0.6-0.4,1-1,1s-1-0.4-1-1v-4.4c0-2.2,1.8-4,4-4h20c2.2,0,4,1.8,4,4v4.4C53.9,18.4,53.4,18.8,52.9,18.8z"/>
	</g>
</g>
</svg>
