<?xml version="1.0" encoding="utf-8"?>
<!-- Generator: Adobe Illustrator 19.0.0, SVG Export Plug-In . SVG Version: 6.00 Build 0)  -->
<svg version="1.1" id="图层_1" xmlns="http://www.w3.org/2000/svg" xmlns:xlink="http://www.w3.org/1999/xlink" x="0px" y="0px"
	 viewBox="0 0 80 80" style="enable-background:new 0 0 80 80;" xml:space="preserve">
<g id="XMLID_63_">
	<g id="XMLID_60_">
		<path id="XMLID_66_" style="fill:#E84545;" d="M48.6,60.7c-0.1,0-0.2,0-0.2,0c-5.3-1.3-11.5-2.8-16.8-4.3c-0.4-0.1-0.6-0.5-0.6-1
			v-4.7c-3-1.6-7.2-4.8-9.8-10.5C20,37.6,16.6,28.5,22,19.7c4-6.4,11.2-10.3,19-10c8,0.3,15.2,4.8,18.4,11.6
			c2.7,5.8,2.4,12.5-1.3,19.9c-1.9,3.8-5,7.1-8,9.7v4.4c0,0.3-0.3,0.6-0.5,0.8s-0.6,0.3-0.9,0.2l-9.7-2.6c-0.5-0.1-0.9-0.7-0.7-1.2
			c0.1-0.5,0.8-0.8,1.3-0.7l8.5,2.3v-3.6c0-0.3,0-0.6,0.3-0.8c3.4-2.4,6.1-5.6,7.9-9.3c1.3-2.5,5.1-10.3,1.3-18.1
			C54.6,16,48.1,12,40.9,11.7c-7.1-0.3-13.7,3.2-17.2,9c-4.9,8-1.8,16.3-0.7,18.7c2.5,5.6,7,8.6,9.4,9.9c0.3,0.2,0.6,0.5,0.6,0.9
			v4.5c5,1.4,10.9,2.9,16,4c0.5,0.1,0.8,0.7,0.7,1.2C49.6,60.4,49.1,60.7,48.6,60.7z"/>
	</g>
	<g id="XMLID_61_">
		<path id="XMLID_65_" style="fill:#E84545;" d="M47.8,65.4c-0.1,0-0.2,0-0.2,0l-15.1-3.5c-0.5-0.1-0.9-0.7-0.7-1.2
			c0.1-0.5,0.7-0.9,1.2-0.7L48,63.5c0.5,0.1,0.9,0.7,0.7,1.2C48.6,65.1,48.2,65.4,47.8,65.4z"/>
	</g>
	<g id="XMLID_62_">
		<path id="XMLID_64_" style="fill:#E84545;" d="M45.9,70.3c-0.1,0-0.1,0-0.2,0l-12.1-2.8c-0.5-0.1-0.9-0.7-0.8-1.2
			c0.1-0.5,0.7-0.9,1.2-0.8l12.1,2.8c0.5,0.1,0.9,0.7,0.8,1.2C46.8,70,46.3,70.3,45.9,70.3z"/>
	</g>
</g>
</svg>
