<?xml version="1.0" encoding="utf-8"?>
<!-- Generator: Adobe Illustrator 19.0.0, SVG Export Plug-In . SVG Version: 6.00 Build 0)  -->
<svg version="1.1" id="图层_1" xmlns="http://www.w3.org/2000/svg" xmlns:xlink="http://www.w3.org/1999/xlink" x="0px" y="0px"
	 viewBox="0 0 80 80" style="enable-background:new 0 0 80 80;" xml:space="preserve">
<g id="XMLID_9_">
	<path id="XMLID_1_" style="fill:#E84545;" d="M40,12c5.2,0,11,11.5,11,28s-5.8,28-11,28S29,56.5,29,40S34.8,12,40,12 M40,10
		c-7.2,0-13,13.4-13,30s5.8,30,13,30c7.2,0,13-13.4,13-30S47.2,10,40,10L40,10z"/>
	<path id="XMLID_10_" style="fill:#E84545;" d="M57.2,23.3c3,0,6.2,1,7.3,2.8c1.3,2.2,0.2,5.9-3,10.2c-3.5,4.7-9.2,9.5-15.9,13.3
		c-7.8,4.5-16.2,7.2-22.4,7.2c-3.8,0-6.4-1-7.4-2.8c-1.3-2.2-0.2-5.9,2.9-10.2c3.5-4.7,9.2-9.5,15.9-13.3c7.8-4.5,16.3-7.2,22.5-7.2
		 M56.9,21.3c-6.3,0-14.9,2.6-23.3,7.4C19.2,37,10.4,48.7,14,54.9c1.5,2.6,4.8,3.8,9.1,3.8c6.3,0,14.9-2.6,23.3-7.4
		C60.8,43,69.6,31.3,66,25.1C64.6,22.5,61.3,21.3,56.9,21.3L56.9,21.3z"/>
	<path id="XMLID_14_" style="fill:#E84545;" d="M23.1,23.3c6.2,0,14.5,2.7,22.4,7.2c6.7,3.9,12.4,8.6,15.9,13.3
		c3.1,4.2,4.2,7.9,2.9,10.2c-1,1.8-3.7,2.8-7.4,2.8c-6.2,0-14.5-2.7-22.4-7.2c-6.7-3.9-12.4-8.6-15.9-13.3
		c-3.1-4.2-4.2-7.9-2.9-10.2C16.7,24.3,19.4,23.3,23.1,23.3 M23.1,21.3c-4.4,0-7.7,1.2-9.1,3.8c-3.6,6.2,5.2,18,19.6,26.2
		c8.5,4.9,17,7.4,23.3,7.4c4.4,0,7.7-1.2,9.1-3.8c3.6-6.2-5.2-18-19.6-26.2C38,23.9,29.4,21.3,23.1,21.3L23.1,21.3z"/>
	<path id="XMLID_2_" style="fill:#E84545;" d="M40,36.8c1.8,0,3.2,1.5,3.2,3.2s-1.5,3.2-3.2,3.2s-3.2-1.5-3.2-3.2S38.2,36.8,40,36.8
		 M40,34.8c-2.9,0-5.2,2.4-5.2,5.2s2.4,5.2,5.2,5.2c2.9,0,5.2-2.4,5.2-5.2S42.9,34.8,40,34.8L40,34.8z"/>
</g>
</svg>
