<?xml version="1.0" encoding="utf-8"?>
<!-- Generator: Adobe Illustrator 19.0.0, SVG Export Plug-In . SVG Version: 6.00 Build 0)  -->
<svg version="1.1" id="图层_1" xmlns="http://www.w3.org/2000/svg" xmlns:xlink="http://www.w3.org/1999/xlink" x="0px" y="0px"
	 viewBox="0 0 80 80" style="enable-background:new 0 0 80 80;" xml:space="preserve">
<g id="XMLID_1_">
	<path id="XMLID_28_" style="fill:#E84545;" d="M73.2,11.6c0.7,0,1.3,0.6,1.3,1.3v40.3c0,0.7-0.6,1.3-1.3,1.3H6.8
		c-0.7,0-1.3-0.6-1.3-1.3V13c0-0.7,0.6-1.3,1.3-1.3H73.2 M73.2,9.6H6.8C5,9.6,3.5,11.1,3.5,13v40.3c0,1.8,1.5,3.3,3.3,3.3h66.3
		c1.8,0,3.3-1.5,3.3-3.3V13C76.5,11.1,75,9.6,73.2,9.6L73.2,9.6z"/>
	<path id="XMLID_31_" style="fill:#E84545;" d="M68.3,17.5c0.5,0,0.9,0.4,0.9,0.9v29.4c0,0.5-0.4,0.9-0.9,0.9H11.7
		c-0.5,0-0.9-0.4-0.9-0.9V18.4c0-0.5,0.4-0.9,0.9-0.9H68.3 M68.3,15.5H11.7c-1.6,0-2.9,1.3-2.9,2.9v29.4c0,1.6,1.3,2.9,2.9,2.9h56.5
		c1.6,0,2.9-1.3,2.9-2.9V18.4C71.2,16.8,69.9,15.5,68.3,15.5L68.3,15.5z"/>
	<g id="XMLID_30_">
		<path id="XMLID_41_" style="fill:#E84545;" d="M40,60.4c-0.6,0-1-0.4-1-1v-3c0-0.6,0.4-1,1-1s1,0.4,1,1v3
			C41,59.9,40.6,60.4,40,60.4z"/>
	</g>
	<g id="XMLID_38_">
		<path id="XMLID_37_" style="fill:#E84545;" d="M56,70H24v-4.5c0-2.6,2.6-4.5,5.2-4.5h22.5c2.6,0,4.3,2,4.3,4.5V70z M26,68h28v-2.5
			c0-1.8-1.3-2.5-2.3-2.5H29.2c-1.5,0-3.2,1.2-3.2,2.5V68z"/>
	</g>
</g>
</svg>
