<?xml version="1.0" encoding="utf-8"?>
<!-- Generator: Adobe Illustrator 19.0.0, SVG Export Plug-In . SVG Version: 6.00 Build 0)  -->
<svg version="1.1" id="图层_1" xmlns="http://www.w3.org/2000/svg" xmlns:xlink="http://www.w3.org/1999/xlink" x="0px" y="0px"
	 viewBox="0 0 80 80" style="enable-background:new 0 0 80 80;" xml:space="preserve">
<g id="XMLID_45_">
	<g id="XMLID_57_">
		<path id="XMLID_79_" style="fill:#E84545;" d="M26.3,52.9c-0.6,0-1-0.4-1-1V23.4c0-3.4,2.6-6.2,5.9-6.2s5.9,2.8,5.9,6.2v18.5
			c0,0.6-0.4,1-1,1s-1-0.4-1-1V23.4c0-2.3-1.7-4.2-3.9-4.2c-2.1,0-3.9,1.9-3.9,4.2v28.5C27.3,52.5,26.9,52.9,26.3,52.9z"/>
	</g>
	<g id="XMLID_56_">
		<path id="XMLID_78_" style="fill:#E84545;" d="M30.1,70.5c-0.3,0-0.5-0.1-0.7-0.3L16.5,57.3c-1.5-1.5-2.4-3.2-2.7-5
			c-0.3-1.9,0.1-3.6,1.3-4.8c2.3-2.3,6.1-2.2,8.4,0.1l3.6,3.6c0.4,0.4,0.4,1,0,1.4s-1,0.4-1.4,0L22,49c-1.6-1.6-4.1-1.6-5.6-0.1
			c-0.7,0.7-0.9,1.7-0.7,3c0.2,1.4,1,2.8,2.2,4l12.9,12.9c0.4,0.4,0.4,1,0,1.4C30.6,70.4,30.4,70.5,30.1,70.5z"/>
	</g>
	<g id="XMLID_55_">
		<path id="XMLID_77_" style="fill:#E84545;" d="M45.8,43.9c-0.6,0-1-0.4-1-1v-4.4c0-1.9-1.7-3.4-3.9-3.4s-3.9,1.5-3.9,3.4v4.4
			c0,0.6-0.4,1-1,1s-1-0.4-1-1v-4.4c0-3,2.6-5.4,5.9-5.4s5.9,2.4,5.9,5.4v4.4C46.8,43.5,46.4,43.9,45.8,43.9z"/>
	</g>
	<g id="XMLID_54_">
		<path id="XMLID_76_" style="fill:#E84545;" d="M55.6,43.9c-0.6,0-1-0.4-1-1v-3.7c0-1.4-1.8-2.7-3.9-2.7s-3.9,1.2-3.9,2.7v3.7
			c0,0.6-0.4,1-1,1s-1-0.4-1-1v-3.7c0-2.6,2.6-4.7,5.9-4.7s5.9,2.1,5.9,4.7v3.7C56.6,43.5,56.1,43.9,55.6,43.9z"/>
	</g>
	<g id="XMLID_53_">
		<path id="XMLID_75_" style="fill:#E84545;" d="M65.4,55.1c-0.6,0-1-0.4-1-1v-12c0-2.3-1.7-4.2-3.9-4.2c-2.2,0-3.9,1.1-3.9,2v3
			c0,0.6-0.4,1-1,1s-1-0.4-1-1v-3c0-2.2,2.6-4,5.9-4c3.2,0,5.9,2.8,5.9,6.2v12C66.4,54.7,65.9,55.1,65.4,55.1z"/>
	</g>
	<g id="XMLID_52_">
		<path id="XMLID_74_" style="fill:#E84545;" d="M58.4,70.5H30.2c-0.6,0-1-0.4-1-1s0.4-1,1-1h28.3c3.3,0,6-2.7,6-6v-9.4
			c0-0.6,0.4-1,1-1s1,0.4,1,1v9.4C66.4,66.9,62.8,70.5,58.4,70.5z"/>
	</g>
	<g id="XMLID_51_">
		<path id="XMLID_73_" style="fill:#E84545;" d="M43,24.3c-0.6,0-1-0.4-1-1v-1c0-5.9-4.8-10.7-10.7-10.7c-5.9,0-10.7,4.8-10.7,10.7
			v1c0,0.6-0.4,1-1,1s-1-0.4-1-1v-1c0-7,5.7-12.7,12.7-12.7S44,15.3,44,22.3v1C44,23.9,43.5,24.3,43,24.3z"/>
	</g>
</g>
</svg>
